<?xml version="1.0" encoding="UTF-8"?>
<svg id="Layer_1" data-name="Layer 1" xmlns="http://www.w3.org/2000/svg" viewBox="0 0 584 172">
  <defs>
    <style>
      .cls-1, .cls-2, .cls-3 {
        fill: #5dc4e2;
      }

      .cls-4, .cls-5 {
        fill: #578cc9;
      }

      .cls-6 {
        stroke-width: .6px;
      }

      .cls-6, .cls-7 {
        stroke: #787878;
      }

      .cls-6, .cls-7, .cls-8, .cls-9, .cls-10 {
        fill: none;
      }

      .cls-7 {
        stroke-width: .7px;
      }

      .cls-11, .cls-12, .cls-13, .cls-8, .cls-14, .cls-5, .cls-15, .cls-2, .cls-3, .cls-16 {
        isolation: isolate;
      }

      .cls-11, .cls-12, .cls-13, .cls-17 {
        fill: #f2c32f;
      }

      .cls-11, .cls-15, .cls-2 {
        opacity: .6;
      }

      .cls-12 {
        opacity: .8;
      }

      .cls-13, .cls-14, .cls-5, .cls-3, .cls-16 {
        opacity: .7;
      }

      .cls-8 {
        stroke: #404040;
        stroke-dasharray: 2 3;
        stroke-width: .4px;
      }

      .cls-14, .cls-15, .cls-18 {
        fill: #5ca75b;
      }

      .cls-9 {
        stroke: #878787;
        stroke-width: .5px;
      }

      .cls-16, .cls-19 {
        fill: #e55d5c;
      }

      .cls-20 {
        fill: #2d2d2c;
      }

      .cls-10 {
        stroke: #578cc9;
        stroke-width: 1.5px;
      }
    </style>
  </defs>
  <line class="cls-8" x1="41.5" y1="59" x2="131.5" y2="114"/>
  <line class="cls-8" x1="131.5" y1="114" x2="206.5" y2="49"/>
  <line class="cls-8" x1="206.5" y1="49" x2="296.5" y2="79"/>
  <line class="cls-8" x1="296.5" y1="79" x2="386.5" y2="124"/>
  <line class="cls-8" x1="386.5" y1="124" x2="466.5" y2="54"/>
  <line class="cls-8" x1="466.5" y1="54" x2="546.5" y2="109"/>
  <g>
    <line class="cls-9" x1="81.5" y1="149" x2="66.5" y2="164"/>
    <line class="cls-9" x1="81.5" y1="149" x2="96.5" y2="164"/>
    <line class="cls-9" x1="81.5" y1="149" x2="91.5" y2="134"/>
    <circle class="cls-17" cx="66.5" cy="164" r="2"/>
    <circle class="cls-1" cx="96.5" cy="164" r="2.5"/>
    <circle class="cls-19" cx="91.5" cy="134" r="2"/>
    <circle class="cls-20" cx="81.5" cy="149" r="3.5"/>
  </g>
  <g>
    <line class="cls-9" x1="166.5" y1="12" x2="151.5" y2="2"/>
    <line class="cls-9" x1="166.5" y1="12" x2="181.5" y2="4"/>
    <line class="cls-9" x1="166.5" y1="12" x2="173.5" y2="29"/>
    <circle class="cls-18" cx="151.5" cy="2" r="2"/>
    <circle class="cls-17" cx="181.5" cy="4" r="2"/>
    <circle class="cls-4" cx="173.5" cy="29" r="2.5"/>
    <circle class="cls-20" cx="166.5" cy="12" r="3"/>
  </g>
  <g>
    <line class="cls-6" x1="41.5" y1="59" x2="13.5" y2="39"/>
    <line class="cls-6" x1="41.5" y1="59" x2="71.5" y2="29"/>
    <line class="cls-6" x1="41.5" y1="59" x2="81.5" y2="64"/>
    <line class="cls-6" x1="41.5" y1="59" x2="26.5" y2="99"/>
    <line class="cls-6" x1="41.5" y1="59" x2="59.5" y2="102"/>
    <line class="cls-6" x1="41.5" y1="59" x2="3.5" y2="69"/>
    <line class="cls-6" x1="41.5" y1="59" x2="11.5" y2="89"/>
    <circle class="cls-17" cx="13.5" cy="39" r="4"/>
    <circle class="cls-19" cx="71.5" cy="29" r="5"/>
    <circle class="cls-1" cx="81.5" cy="64" r="3.5"/>
    <circle class="cls-18" cx="26.5" cy="99" r="4"/>
    <circle class="cls-10" cx="59.5" cy="102" r="3"/>
    <circle class="cls-17" cx="3.5" cy="69" r="3.5"/>
    <circle class="cls-19" cx="11.5" cy="89" r="2.5"/>
    <circle class="cls-20" cx="41.5" cy="59" r="7.5"/>
  </g>
  <circle class="cls-16" cx="106.5" cy="34" r="2"/>
  <circle class="cls-12" cx="116.5" cy="79" r="1.5"/>
  <circle class="cls-2" cx="99.5" cy="99" r="2"/>
  <g>
    <line class="cls-6" x1="131.5" y1="114" x2="106.5" y2="97"/>
    <line class="cls-6" x1="131.5" y1="114" x2="156.5" y2="89"/>
    <line class="cls-6" x1="131.5" y1="114" x2="163.5" y2="129"/>
    <line class="cls-6" x1="131.5" y1="114" x2="146.5" y2="149"/>
    <line class="cls-6" x1="131.5" y1="114" x2="109.5" y2="142"/>
    <line class="cls-6" x1="131.5" y1="114" x2="96.5" y2="119"/>
    <circle class="cls-10" cx="106.5" cy="97" r="3"/>
    <circle class="cls-17" cx="156.5" cy="89" r="4"/>
    <circle class="cls-19" cx="163.5" cy="129" r="3.5"/>
    <circle class="cls-1" cx="146.5" cy="149" r="3"/>
    <circle class="cls-18" cx="109.5" cy="142" r="2.5"/>
    <circle class="cls-17" cx="96.5" cy="119" r="3"/>
    <circle class="cls-20" cx="131.5" cy="114" r="6"/>
  </g>
  <circle class="cls-14" cx="191.5" cy="99" r="1.5"/>
  <circle class="cls-11" cx="181.5" cy="139" r="2"/>
  <g>
    <line class="cls-6" x1="206.5" y1="49" x2="186.5" y2="26"/>
    <line class="cls-6" x1="206.5" y1="49" x2="226.5" y2="22"/>
    <line class="cls-6" x1="206.5" y1="49" x2="239.5" y2="49"/>
    <line class="cls-6" x1="206.5" y1="49" x2="231.5" y2="76"/>
    <line class="cls-6" x1="206.5" y1="49" x2="191.5" y2="79"/>
    <line class="cls-6" x1="206.5" y1="49" x2="176.5" y2="54"/>
    <circle class="cls-18" cx="186.5" cy="26" r="3"/>
    <circle class="cls-19" cx="226.5" cy="22" r="3.5"/>
    <circle class="cls-17" cx="239.5" cy="49" r="3" transform="translate(152.77 277.56) rotate(-80.78)"/>
    <circle class="cls-10" cx="231.5" cy="76" r="3.5"/>
    <circle class="cls-1" cx="191.5" cy="79" r="3"/>
    <circle class="cls-17" cx="176.5" cy="54" r="2.5"/>
    <circle class="cls-20" cx="206.5" cy="49" r="5.5"/>
  </g>
  <g>
    <line class="cls-9" x1="261.5" y1="154" x2="249.5" y2="139"/>
    <line class="cls-9" x1="261.5" y1="154" x2="276.5" y2="142"/>
    <line class="cls-9" x1="261.5" y1="154" x2="271.5" y2="170"/>
    <circle class="cls-19" cx="249.5" cy="139" r="2"/>
    <circle class="cls-17" cx="276.5" cy="142" r="2.5"/>
    <circle class="cls-18" cx="271.5" cy="170" r="2"/>
    <circle class="cls-20" cx="261.5" cy="154" r="3.5"/>
  </g>
  <circle class="cls-5" cx="256.5" cy="104" r="1.5"/>
  <circle class="cls-3" cx="243.5" cy="22" r="1.5"/>
  <g>
    <line class="cls-9" x1="341.5" y1="14" x2="329.5" y2="2"/>
    <line class="cls-9" x1="341.5" y1="14" x2="356.5" y2="4"/>
    <line class="cls-9" x1="341.5" y1="14" x2="349.5" y2="32"/>
    <circle class="cls-1" cx="329.5" cy="2" r="2"/>
    <circle class="cls-17" cx="356.5" cy="4" r="2.5"/>
    <circle class="cls-19" cx="349.5" cy="32" r="2"/>
    <circle class="cls-20" cx="341.5" cy="14" r="3"/>
  </g>
  <g>
    <line class="cls-7" x1="296.5" y1="79" x2="261.5" y2="46"/>
    <line class="cls-7" x1="296.5" y1="79" x2="303.5" y2="39"/>
    <line class="cls-7" x1="296.5" y1="79" x2="336.5" y2="52"/>
    <line class="cls-7" x1="296.5" y1="79" x2="346.5" y2="82"/>
    <line class="cls-7" x1="296.5" y1="79" x2="336.5" y2="109"/>
    <line class="cls-7" x1="296.5" y1="79" x2="306.5" y2="126"/>
    <line class="cls-7" x1="296.5" y1="79" x2="269.5" y2="119"/>
    <line class="cls-7" x1="296.5" y1="79" x2="246.5" y2="82"/>
    <line class="cls-7" x1="296.5" y1="79" x2="266.5" y2="56"/>
    <circle class="cls-19" cx="261.5" cy="46" r="4.5"/>
    <circle class="cls-1" cx="303.5" cy="39" r="3.5"/>
    <circle class="cls-17" cx="336.5" cy="52" r="5"/>
    <circle class="cls-18" cx="346.5" cy="82" r="3.5"/>
    <circle class="cls-19" cx="336.5" cy="109" r="4"/>
    <circle class="cls-10" cx="306.5" cy="126" r="3"/>
    <circle class="cls-18" cx="269.5" cy="119" r="3.5"/>
    <circle class="cls-17" cx="246.5" cy="82" r="3"/>
    <circle class="cls-1" cx="266.5" cy="56" r="2.5"/>
    <circle class="cls-20" cx="296.5" cy="79" r="9.5"/>
  </g>
  <circle class="cls-13" cx="371.5" cy="49" r="2"/>
  <circle class="cls-2" cx="376.5" cy="89" r="1.5"/>
  <circle class="cls-16" cx="361.5" cy="154" r="1.5"/>
  <g>
    <line class="cls-6" x1="386.5" y1="124" x2="361.5" y2="104"/>
    <line class="cls-6" x1="386.5" y1="124" x2="411.5" y2="94"/>
    <line class="cls-6" x1="386.5" y1="124" x2="421.5" y2="139"/>
    <line class="cls-6" x1="386.5" y1="124" x2="371.5" y2="156"/>
    <line class="cls-6" x1="386.5" y1="124" x2="351.5" y2="144"/>
    <line class="cls-6" x1="386.5" y1="124" x2="396.5" y2="89"/>
    <line class="cls-6" x1="386.5" y1="124" x2="416.5" y2="119"/>
    <circle class="cls-1" cx="361.5" cy="104" r="3.5"/>
    <circle class="cls-17" cx="411.5" cy="94" r="4"/>
    <circle class="cls-10" cx="421.5" cy="139" r="3"/>
    <circle class="cls-18" cx="371.5" cy="156" r="3"/>
    <circle class="cls-19" cx="351.5" cy="144" r="3.5"/>
    <circle class="cls-18" cx="396.5" cy="89" r="2.5"/>
    <circle class="cls-17" cx="416.5" cy="119" r="3"/>
    <circle class="cls-20" cx="386.5" cy="124" r="6.5"/>
  </g>
  <g>
    <line class="cls-9" x1="431.5" y1="19" x2="419.5" y2="6"/>
    <line class="cls-9" x1="431.5" y1="19" x2="446.5" y2="9"/>
    <line class="cls-9" x1="431.5" y1="19" x2="441.5" y2="36"/>
    <circle class="cls-18" cx="419.5" cy="6" r="2"/>
    <circle class="cls-19" cx="446.5" cy="9" r="2.5"/>
    <circle class="cls-17" cx="441.5" cy="36" r="2"/>
    <circle class="cls-20" cx="431.5" cy="19" r="3"/>
  </g>
  <circle class="cls-14" cx="441.5" cy="84" r="2"/>
  <circle class="cls-13" cx="429.5" cy="162" r="1.5"/>
  <g>
    <line class="cls-6" x1="469.5" y1="54" x2="446.5" y2="32"/>
    <line class="cls-6" x1="469.5" y1="54" x2="489.5" y2="26"/>
    <line class="cls-6" x1="469.5" y1="54" x2="503.5" y2="56"/>
    <line class="cls-6" x1="469.5" y1="54" x2="491.5" y2="84"/>
    <line class="cls-6" x1="469.5" y1="54" x2="453.5" y2="84"/>
    <line class="cls-6" x1="469.5" y1="54" x2="436.5" y2="62"/>
    <circle class="cls-17" cx="446.5" cy="32" r="3"/>
    <circle class="cls-19" cx="489.5" cy="26" r="4"/>
    <circle class="cls-1" cx="503.5" cy="56" r="3"/>
    <circle class="cls-18" cx="491.5" cy="84" r="3.5"/>
    <circle class="cls-10" cx="453.5" cy="84" r="3"/>
    <circle class="cls-17" cx="436.5" cy="62" r="2.5"/>
    <circle class="cls-20" cx="469.5" cy="54" r="6.5"/>
  </g>
  <g>
    <line class="cls-9" x1="516.5" y1="16" x2="506.5" y2="4"/>
    <line class="cls-9" x1="516.5" y1="16" x2="531.5" y2="4"/>
    <line class="cls-9" x1="516.5" y1="16" x2="529.5" y2="34"/>
    <circle class="cls-1" cx="506.5" cy="4" r="2"/>
    <circle class="cls-17" cx="531.5" cy="4" r="2"/>
    <circle class="cls-19" cx="529.5" cy="34" r="2.5"/>
    <circle class="cls-20" cx="516.5" cy="16" r="3"/>
  </g>
  <circle class="cls-13" cx="531.5" cy="74" r="1.5"/>
  <circle class="cls-15" cx="491.5" cy="149" r="2"/>
  <circle class="cls-5" cx="573.5" cy="156" r="1.5"/>
  <g>
    <line class="cls-6" x1="546.5" y1="109" x2="521.5" y2="89"/>
    <line class="cls-6" x1="546.5" y1="109" x2="571.5" y2="84"/>
    <line class="cls-6" x1="546.5" y1="109" x2="581.5" y2="122"/>
    <line class="cls-6" x1="546.5" y1="109" x2="556.5" y2="144"/>
    <line class="cls-6" x1="546.5" y1="109" x2="526.5" y2="139"/>
    <line class="cls-6" x1="546.5" y1="109" x2="511.5" y2="112"/>
    <circle class="cls-18" cx="521.5" cy="89" r="3"/>
    <circle class="cls-19" cx="571.5" cy="84" r="3.5"/>
    <circle class="cls-17" cx="581.5" cy="122" r="2.5"/>
    <circle class="cls-1" cx="556.5" cy="144" r="3"/>
    <circle class="cls-10" cx="526.5" cy="139" r="3"/>
    <circle class="cls-17" cx="511.5" cy="112" r="2.5"/>
    <circle class="cls-20" cx="546.5" cy="109" r="6"/>
  </g>
</svg>